<svg xmlns="http://www.w3.org/2000/svg" version="1.1" xmlns:xlink="http://www.w3.org/1999/xlink" viewBox="0 0 1422 800" style="overflow: hidden; display: block;" width="1422" height="800"><defs></defs><g id="two-0" transform="matrix(1 0 0 1 0 0)" opacity="1"></g><path d="M 689.5524819056279 68.66339233248253 Q 689.5524819056279 68.66339233248253 685.3671155115112 78.15528114375046 681.1817491173945 87.64716995501838 667.1606709437273 114.47059695687526 653.1395927700601 141.29402395873214 649.1088059340334 146.76532839858743 645.0780190980067 152.23663283844274 643.06589833662 154.73640297903418 641.0537775752331 157.23617311962562 640.3660949833239 157.90247021599498 639.6784123914148 158.56876731236437 636.1125472634791 158.84221233175043 632.5466821355434 159.1156573511365 632.5416821355434 159.11565734801292 632.5366821355434 159.11565734488937 632.5316821355434 159.11565734176583 632.5266821355434 159.11565733864225 628.9716245643813 155.66030902416625 625.4165669932191 152.20496070969025 625.9895548862165 150.36075420886124 626.5625427792139 148.51654770803225 628.3016981890526 144.7851907339481 630.0408535988913 141.05383375986395 633.6550991427939 136.25517326373654 637.2693446866965 131.4565127676091 655.300688623274 106.53593998387103 673.3320325598515 81.61536720013298 681.4343309911743 75.133282660876 689.5366294224971 68.65119812161903 689.5445556640625 68.65729522705078 Z" fill="hsl(10, 75%, 40%)"></path><path d="M 662.273767832389 112.02494338258526 Q 662.273767832389 112.02494338258526 666.6227065831224 106.14786002171984 670.9716453338558 100.27077666085441 675.1486674997354 98.40282554615364 679.3256896656152 96.53487443145286 684.7155765396728 94.10508764904205 690.1054634137305 91.67530086663122 694.9537014504399 90.939728031257 699.8019394871494 90.20415519588278 705.1617119098485 90.15990796831036 710.5214843325476 90.11566074073794 713.7626563894154 90.3493720152837 717.0038284462831 90.58308328982946 720.5100481675099 92.25771730255043 724.0162678887368 93.9323513152714 727.1190761944707 97.08858733807821 730.2218845002046 100.24482336088501 731.2463711344742 103.72266303866056 732.2708577687438 107.20050271643612 732.5829882162375 113.31069716838437 732.8951186637312 119.42089162033263 730.1356057474387 133.3133576198683 727.3760928311463 147.20582361940396 719.4784149132608 170.64134332244788 711.5807369953754 194.0768630254918 703.4885751146282 214.98244515227844 695.396413233881 235.88802727906508 692.24168740279 242.55516155232883 689.086961571699 249.22229582559257 687.2230896213838 250.9805410133947 685.3592176710686 252.7387862011969 685.7091144462595 251.81418746049425 686.0590112214504 250.88958871979162 685.9000219941195 251.4770014838449 685.7410327667884 252.06441424789818 685.5893185348407 252.68349302030452 685.437604302893 253.30257179271084 685.2917733583212 253.9222237896771 685.1459424137494 254.54187578664335 685.0297826121002 255.49849712674734 684.913622810451 256.45511846685133 684.5718969990974 257.35614064067187 684.2301711877436 258.2571628144924 683.6827404868973 259.0502183709526 683.1353097860509 259.84327392741284 682.413990893766 260.4822704403098 681.6926720014811 261.12126695320666 680.8393880056683 261.5690659151876 679.9861040098554 262.0168648771685 679.0504478164426 262.2474401915233 678.1147916230298 262.47801550587815 677.1511436139399 262.47796612450304 676.1874956048499 262.477916743128 675.2518630476479 262.24724553607086 674.3162304904458 262.01657432901374 673.4629923933169 261.5686879176667 672.6097542961879 261.12080150631965 671.8885008974264 260.4817310699541 671.1672474986648 259.84266063358854 670.6198980796946 259.0495489759926 670.0725486607245 258.2564373183967 669.7309151954933 257.3553801263741 669.389281730262 256.45432293435147 669.2732199718207 255.4976896942385 669.1571582133794 254.54105645412548 673.1493542531741 252.68786311454215 677.1415502929688 250.83466977495883 677.1465502929688 250.83466977495883 677.1515502929688 250.83466977495883 677.1565502929687 250.83466977495883 677.1615502929687 250.83466977495883 681.1537463338705 252.68787306119572 685.1459423747721 254.54107634743258 685.0298782358375 255.4977092987336 684.913814096903 256.45434225003464 684.5721783894752 257.35539859193113 684.2305426820474 258.2564549338276 683.6831912894937 259.04956522939256 683.1358398969401 259.8426755249575 682.414584907913 260.48174416654854 681.6933299188858 261.1208128081396 680.8400907072355 261.56869709628097 679.9868514955851 262.0165813844223 679.0512183643821 262.2472502632435 678.1155852331789 262.4779191420646 677.1519372239691 262.4779661254905 676.1882892147592 262.4780131089164 675.2526335951146 262.24743546626814 674.3169779754701 262.01685782361994 673.4636950939663 261.56905673832193 672.6104122124625 261.1212556530239 671.8890949102637 260.4822573451935 671.1677776080649 259.843259037363 670.6203488806657 259.05020211867446 670.0729201532666 258.2571451999859 669.7311965840246 257.356122175815 669.3894730147825 256.45509915164416 669.2733155935977 255.49847752249016 669.1571581724128 254.54185589333616 669.0113272409485 253.92220353348307 668.8654963094842 253.30255117363 668.7137836195952 252.68223600985567 668.5620709297062 252.0619208460813 668.4032631210482 251.3994009255643 668.2444553123901 250.73688100504728 668.6156954608676 247.3224968280523 668.9869356093452 243.9081126510573 669.6340487515683 241.87266141901029 670.2811618937915 239.8372101869633 673.4177694737045 233.86869459515947 676.5543770536176 227.90017900335565 685.8117140088191 207.86812459617084 695.0690509640206 187.83607018898604 704.4367821122493 165.5870718357612 713.804513260478 143.33807348253637 718.4174953121192 131.33206637411067 723.0304773637604 119.32605926568498 723.3318049808371 114.33521611395284 723.6331325979138 109.34437296222069 723.3866980066495 107.86518651551648 723.1402634153851 106.3860000688123 721.2858260643291 104.60627661195176 719.431388713273 102.82655315509123 717.9695919991975 102.04365648960632 716.5077952851221 101.26075982412141 713.5209200649263 101.49456215432386 710.5340448447304 101.7283644845263 705.9897459538729 101.69482968715053 701.4454470630153 101.66129488977478 697.5977737277158 102.18600795989164 693.7501003924164 102.71072103000849 688.0176410822879 103.98874567456772 682.2851817721595 105.26677031912698 678.99561615006 105.92946231375542 675.7060505279605 106.59215430838387 668.9960485743483 109.3164423769618 662.286046620736 112.04073044553974 662.2799072265625 112.0328369140625 Z" fill="hsl(10, 75%, 40%)"></path><path d="M 523.4882104492187 255.79177856445312 Q 523.4882104492187 255.79177856445312 526.7113734932441 266.85055927887447 529.9345365372694 277.9093399932959 531.8756880438822 291.9213942641269 533.8168395504949 305.9334485349579 533.8948509438408 307.786357040351 533.9728623371865 309.6392655457441 533.8328728253468 311.8120923587705 533.6928833135073 313.9849191717969 530.4392703950177 315.2461884169286 527.185657476528 316.50745766206035 527.1856146116494 316.5124574783172 527.1855717467707 316.51745729457406 527.1855288818921 316.52245711083094 527.1854860170134 316.52745692708777 522.7029981592821 315.28876536836356 518.2205103015508 314.0500738096393 518.0699873449751 313.72152821229423 517.9194643883994 313.3929826149492 516.7582469892648 310.0890212794213 515.59702959013 306.7850599438934 516.309456975649 292.3474594320859 517.0218843611681 277.9098589202784 520.2450474051934 266.85081874236573 523.4682104492188 255.79177856445312 523.4782104492188 255.79177856445312 Z" fill="hsl(10, 75%, 40%)"></path><path d="M 532.1526551115229 265.69622942453685 Q 532.1526551115229 265.69622942453685 541.0724977571758 260.66582008258257 549.9923404028287 255.63541074062832 577.0471670023815 249.52356934833753 604.1019936019342 243.41172795604675 619.2356883903608 241.26185391286828 634.3693831787874 239.1119798696898 645.9912127231976 238.25987455217916 657.6130422676077 237.40776923466848 675.0438907770593 236.64858952252763 692.474739286511 235.88940981038678 704.5374594602472 235.7823773364062 716.6001796339835 235.67534486242562 738.0072421792079 234.99273996421454 759.4143047244322 234.31013506600348 769.1881166812898 233.6497648162063 778.9619286381474 232.98939456640915 786.3981872088832 231.78569704446772 793.834445779619 230.58199952252627 799.8044554086321 230.65342956800623 805.7744650376452 230.72485961348616 808.3527508503075 231.25250338422705 810.93103666297 231.78014715496798 811.5773887929915 231.9941320166688 812.2237409230132 232.20811687836965 813.4582833134912 232.56962987131902 814.692825703969 232.93114286426842 820.3180753436059 238.0781223973129 825.9433249832429 243.2251019303574 825.812769168927 243.88426911065847 825.6822133546112 244.5434362909595 820.8981766855445 240.55497068759476 816.1141400164779 236.56650508423002 816.6868757399325 236.69703967508948 817.2596114633872 236.82757426594895 818.171109874753 237.2090682796268 819.0826082861188 237.59056229330463 820.9349729673452 238.93926835952163 822.7873376485716 240.28797442573867 825.3104795014756 243.59660318954494 827.8336213543796 246.9052319533512 827.7636729151366 247.59095169959633 827.6937244758936 248.27667144584146 827.5531800944659 248.9303821868618 827.4126357130383 249.58409292788215 827.2773221054463 250.20402171329704 827.1420084978544 250.82395049871195 827.0116567454072 251.4436493534564 826.8813049929599 252.06334820820086 826.7562257048203 252.6829556134959 826.6311464166807 253.3025630187909 826.4236245604952 254.53659162555294 826.2161027043098 255.77062023231503 826.0228073331573 257.0098789838343 825.8295119620049 258.2491377353536 825.6376998032113 261.94597995982696 825.4458876444178 265.6428221843003 826.4428335065844 274.8899939622879 827.439779368751 284.1371657402755 827.4056862519535 289.74522192347195 827.3715931351561 295.3532781066683 827.2115212853107 300.3160094885834 827.0514494354653 305.2787408704985 826.7651566211196 309.0072326123302 826.4788638067737 312.73572435416196 826.2738166499378 313.9961860423293 826.0687694931019 315.2566477304967 825.9584278772559 315.88173884448236 825.8480862614099 316.506829958468 822.7546449373456 318.3763588618286 819.6612036132813 320.24588776518914 819.6662036132813 320.24588776518914 819.6712036132812 320.24588776518914 819.6762036132812 320.24588776518914 819.6812036132812 320.24588776518914 816.5877622892169 318.3763588618286 813.4943209651526 316.506829958468 813.3839793493066 315.88173884448236 813.2736377334606 315.2566477304967 813.0685905766247 313.9961860423293 812.8635434197888 312.73572435416196 812.5772506054429 309.0072326123302 812.2909577910972 305.2787408704985 812.1308859412518 300.3160094885834 811.9708140914064 295.3532781066683 811.936720974609 289.74522192347195 811.9026278578115 284.1371657402755 812.8995737199781 274.8899939622879 813.8965195821447 265.6428221843003 813.7047074233512 261.94597995982696 813.5128952645576 258.2491377353536 813.3195998934052 257.0098789838343 813.1263045222527 255.77062023231503 812.9187826660673 254.5365916255555 812.7112608098818 253.302563018796 812.5861815217418 252.68295561382126 812.4611022336017 252.06334820884655 812.3307504746306 251.44365394151814 812.2003987156596 250.82395967418972 812.0650843470255 250.20458562650356 811.9297699783913 249.58521157881742 811.7891360625918 248.9997076446336 811.6485021467921 248.41420371044975 811.5680202520266 247.87108029877047 811.4875383572612 247.32795688709118 812.7714501487051 250.62614110360758 814.0553619401489 253.92432532012398 814.6788532085509 254.04426111694687 815.3023444769528 254.16419691376973 816.2033987267655 254.54560139423253 817.1044529765783 254.92700587469534 816.4484638114272 255.04700714613674 815.7924746462761 255.16700841757813 811.0083476816828 249.93932876503098 806.2242207170897 244.71164911248383 806.0830418996457 244.1420467844785 805.9418630822016 243.57244445647322 810.3173476479435 248.71942399604146 814.6928322136853 253.8664035356097 813.459087963688 254.22791729606064 812.2253437136907 254.58943105651161 811.6108293057348 254.80350621251426 810.9963148977788 255.01758136851694 809.7931399005772 255.55584799829637 808.5899649033755 256.09411462807583 803.3638081949894 257.4152927957367 798.1376514866033 258.7364709633976 789.429717933401 260.0008456554708 780.7217843801986 261.26522034754396 770.4680783955689 261.84404977903944 760.2143724109392 262.422879210535 738.4136321260916 262.96913337352555 716.6128918412439 263.5153875365162 705.0349434437792 263.4188906907528 693.4569950463145 263.3223938449894 676.2921916244909 263.80269980546086 659.1273882026672 264.28300576593233 648.3767220409895 264.6916256543626 637.6260558793118 265.1002455427929 622.7980078731554 266.7098653324508 607.9699598669989 268.31948512210874 579.5735970245655 270.81945982867967 551.1772341821321 273.3194345352506 541.6656098478046 269.5178098307475 532.1539855134771 265.7161851262444 532.1533203125 265.7062072753906 Z" fill="hsl(10, 75%, 40%)"></path><path d="M 539.5853974318734 317.74755116638636 Q 539.5853974318734 317.74755116638636 547.5745983859791 310.9884418145273 555.5637993400849 304.22933246266825 562.494359056024 301.29228785781265 569.424918771963 298.355243252957 575.8927882023481 296.9235643924693 582.3606576327334 295.4918855319816 590.1467447508398 292.9761540018508 597.9328318689462 290.4604224717199 602.1721726054045 290.85006398316773 606.4115133418628 291.2397054946156 607.6895308081372 291.53042283334344 608.9675482744116 291.82114017207124 610.8218220433237 292.1678422802773 612.6760958122359 292.51454438848333 613.3062479508909 292.654802777908 613.9364000895459 292.79506116733273 615.7849031189072 293.0918101269873 617.6334061482685 293.38855908664186 618.2634804842219 293.51171835332826 618.8935548201753 293.63487762001466 620.1276950894845 293.8357007099122 621.3618353587938 294.03652379980974 621.9867178698084 294.1463057026551 622.6116003808232 294.25608760550045 623.2312739427136 294.36089703825326 623.8509475046042 294.465706471006 624.4706070486059 294.56652191959444 625.0902665926075 294.66733736818287 625.7099260174571 294.764320105134 626.3295854423067 294.86130284208514 626.9492146079648 294.95460170769786 627.5688437736229 295.04790057331064 628.1885477084638 295.1378847091793 628.8082516433046 295.2278688450479 629.4278666772691 295.3142316312702 630.0474817112337 295.40059441749247 630.667140757748 295.48370438886434 631.2867998042623 295.56681436023615 631.9064289667045 295.64679215705314 632.5260581291468 295.7267699538701 633.1457620639601 295.80394767184384 633.7654659987735 295.88112538981756 634.385081032738 295.9552033695908 635.0046960667024 296.02928134936394 637.7234718131563 298.1818179112904 640.4422475596102 300.3343544732168 637.7376012124003 302.22765642445887 635.0329548651902 304.1209583757009 635.0294041871454 304.1174380510821 635.0258535091006 304.1139177264632 635.0223028310558 304.11039740184435 635.018752153011 304.10687707722553 633.5322059400739 302.29290803052 632.045659727137 300.47893898381443 633.5251778969198 302.63147554574084 635.0046960667024 304.7840121076673 634.385081032738 304.8580900874405 633.7654659987735 304.9321680672137 633.1457620639601 305.0093457851874 632.5260581291468 305.0865235031612 631.9064289667045 305.1665012999781 631.2867998042623 305.2464790967951 630.667140757748 305.3295890681669 630.0474817112337 305.4126990395388 629.4278666772691 305.49906182576103 628.8082516433046 305.58542461198334 628.1885477084638 305.675408747852 627.5688437736229 305.7653928837206 626.9492146079648 305.8586917493334 626.3295854423067 305.9519906149461 625.7099260174571 306.04897335189725 625.0902665926075 306.1459560888484 624.4706070486059 306.2467715374368 623.8509475046042 306.34758698602525 623.2312739427136 306.452396418778 622.6116003808232 306.5572058515308 621.9867178698084 306.6669877543761 621.3618353587938 306.7767696572215 620.1276950894921 306.97759274711905 618.8935548201905 307.1784158370166 618.2634804845418 307.3015751037044 617.6334061488931 307.42473437039223 615.7849032361029 307.7214833302113 613.9364003233127 308.01823229003037 613.3062529142722 308.15849069880824 612.6761055052318 308.29874910758605 610.8227427748122 308.6454534926319 608.9693800443926 308.9921578776777 607.7364441770608 309.28314307990934 606.503508309729 309.5741282821409 604.4623715516253 309.99528314697903 602.4212347935216 310.41643801181715 594.1278701444558 311.6081598217122 585.8345054953897 312.7998816316073 579.8984891164284 313.85760795110497 573.962472737467 314.9153342706026 567.2199755231541 315.72725004947495 560.477478308841 316.53916582834734 550.0351517666088 317.15264326848046 539.5928252243766 317.76612070861364 539.589111328125 317.7568359375 Z" fill="hsl(10, 75%, 40%)"></path><path d="M 714.3281410593681 304.1148408089846 Q 714.3281410593681 304.1148408089846 721.2156559297437 300.2714929035274 728.1031708001191 296.42814499807025 734.7884289002673 295.42399215117246 741.4736870004155 294.4198393042746 744.6057738270595 294.4589115774794 747.7378606537035 294.49798385068414 751.4508689179403 294.57513920431575 755.1638771821771 294.6522945579474 758.2673386357608 294.84813132602744 761.3708000893445 295.0439680941075 763.2403262105164 295.23028070676366 765.1098523316883 295.4165933194198 768.1976746392064 295.5670292201853 771.2854969467245 295.71746512095086 773.7692824530616 295.8715828947945 776.2530679593988 296.02570066863825 777.5029345154751 296.14372620652955 778.7528010715514 296.26175174442085 781.2209639540017 296.38512899796524 783.6891268364519 296.5085062515097 785.5532529189509 296.6250672821694 787.4173790014497 296.7416283128292 789.276370771149 296.8474517752147 791.1353625408483 296.9532752376002 792.9943409270675 297.049484445074 794.8533193132866 297.14569365254766 796.7122673275676 297.23325597275266 798.5712153418485 297.3208182929576 799.8157707792424 297.394806448773 801.0603262166362 297.46879460458837 801.6852972565796 297.5138383649419 802.3102682965231 297.55888212529544 803.544334929635 297.62483365227706 804.778401562747 297.6907851792587 805.403283447854 297.7317746397513 806.0281653329611 297.7727641002439 806.6479142954263 297.81217431615687 807.2676632578915 297.8515845320699 807.9451535515133 297.9030347757548 808.622643845135 297.95448501943974 810.3264948237256 298.7349827880076 812.0303458023161 299.5154805565754 812.1276640761461 299.43172747069093 812.224982349976 299.3479743848064 812.844515179689 299.3812154932105 813.464048009402 299.41445660161463 814.0837063831352 299.44651852677407 814.7033647568684 299.47858045193345 816.3667117220875 300.54428515145344 818.0300586873067 301.6099898509735 816.9966833963599 303.481598459633 815.9633081054133 305.3532070682925 815.9583081054133 305.35320706831857 815.9533081054133 305.35320706834466 815.9483081054133 305.35320706837075 815.9433081054133 305.35320706839684 814.8993082959637 303.51754366730495 813.855308486514 301.6818802662131 814.2793366104738 302.7475849656786 814.7033647344336 303.8132896651441 814.083705013096 303.8453515838893 813.4640452917583 303.8774135026345 812.8443478132675 303.91065385642986 812.2246503347767 303.9438942102252 811.0720872982906 303.849607934613 809.9195242618046 303.75532165900074 809.1552730242495 303.3070650482961 808.3910217866945 302.8588084375915 807.829342522293 302.91025868127645 807.2676632578915 302.96170892496133 806.6479142954263 303.0011191408744 806.0281653329611 303.0405293567874 805.403283447854 303.08151881727997 804.778401562747 303.12250827777257 803.544334929635 303.1884598047542 802.3102682965231 303.2544113317358 801.6852972565796 303.2994550920894 801.0603262166362 303.3444988524429 799.8157707792424 303.41848700825824 798.5712153418485 303.49247516407365 796.7122673275676 303.5800374842786 794.8533193132866 303.6675998044836 792.9943409270675 303.7638090119573 791.1353625408483 303.860018219431 789.276370771149 303.9658416818165 787.4173790014497 304.07166514420203 785.5532529189509 304.1882261748618 783.6891268364519 304.30478720552156 781.2209639540017 304.428164459066 778.7528010715514 304.5515417126104 777.5029345154751 304.6695672505017 776.2530679593988 304.787592788393 773.7692824530627 304.9417105622367 771.2854969467265 305.0958283360804 768.1976746394257 305.2462642368473 765.1098523321249 305.3967001376143 763.24032622736 305.58301275043397 761.3708001225951 305.76932536325364 758.2673404066779 305.96516215057636 755.1638806907607 306.16099893789914 751.4511224891338 306.23815655537567 747.7383642875069 306.31531417285225 744.6211384654299 306.3546527807549 741.5039126433529 306.3939913886575 735.7761714282087 305.42117203562566 730.0484302130645 304.44835268259385 722.1907109830981 304.29129817313276 714.3329917531319 304.13424366367167 714.33056640625 304.1245422363281 Z" fill="hsl(10, 75%, 40%)"></path><path d="M 721.7764184570312 250.83457946777344 Q 721.7764184570312 250.83457946777344 724.3843064055637 258.20966061981886 726.9921943540962 265.5847417718643 727.5547847899079 281.0141318142481 728.1173752257197 296.443521856632 726.2341648232925 338.0544891532395 724.3509544208654 379.665456449847 724.1406247940461 395.29643080623737 723.9302951672267 410.9274051626277 722.9613606669366 420.855110828282 721.9924261666465 430.78281649393637 721.6132349828629 436.1915438726888 721.2340437990792 441.6002712514412 720.6176836516865 444.1384568957046 720.001323504294 446.67664253996804 718.7216958021295 450.2355230463388 717.4420680999649 453.79440355270964 717.2264406143429 457.6234797417251 717.010813128721 461.4525559307406 716.00230586517 466.3510860390759 714.9937986016191 471.24961614741125 715.802366634455 481.16688941258434 716.6109346672908 491.08416267775743 716.3796942367312 496.7003259454753 716.1484538061716 502.31648921319317 715.7547048234737 506.6648963906002 715.360955840776 511.0133035680072 714.9845792662865 514.7365734977075 714.6082026917969 518.4598434274078 714.2696909281494 520.9489999801655 713.931179164502 523.4381565329231 713.8067393616172 524.0737066823377 713.6822995587323 524.7092568317523 713.5652972196698 525.329051326747 713.4482948806072 525.9488458217418 713.3357934771038 526.5685063936749 713.2232920736004 527.1881669656078 713.1150945357496 527.8077961410161 713.0068969978987 528.4274253164244 712.9025936074414 529.0471292513489 712.7982902169841 529.6668331862734 712.6981928188051 530.2864482202378 712.598095420626 530.9060632542024 712.4350787065528 532.1400843612636 712.2720619924796 533.3741054683247 712.1200479004834 534.6133792851859 711.9680338084872 535.8526531020472 711.8266392133667 537.0919413087629 711.685244618246 538.3312295154788 711.5536726504861 539.5705178445082 711.4221006827263 540.8098061735378 711.2996143563793 542.0491247617857 711.1771280300322 543.2884433500336 711.0622998927056 544.5278214780742 710.947471755379 545.7671996061148 710.8817720025982 546.3920370981607 710.8160722498174 547.0168745902066 710.7532512374329 547.6365780276146 710.6904302250484 548.2562814650227 710.6297610215752 548.8759557783608 710.569091818102 549.495630091699 710.4758592253185 550.7296371872402 710.3826266325349 551.9636442827814 710.2954958573416 554.4316723598172 710.2083650821485 556.8997004368529 710.2972575208635 561.2213643902294 710.3861499595785 565.5430283436058 710.2882403416436 567.4229091852076 710.1903307237087 569.3027900268094 710.1093841544674 570.5475233932355 710.0284375852261 571.7922567596614 709.9798007939446 572.4172293120016 709.9311640026631 573.0422018643419 708.417969696644 575.5261216927008 706.904775390625 578.0100415210599 706.899775390625 578.0100415210599 706.894775390625 578.0100415210599 706.889775390625 578.0100415210599 706.884775390625 578.0100415210599 705.371581084606 575.5261216927008 703.8583867785869 573.0422018643419 703.8097499873054 572.4172293120016 703.7611131960239 571.7922567596614 703.6801666267826 570.5475233932355 703.5992200575413 569.3027900268094 703.5013104396064 567.4229091852076 703.4034008216715 565.5430283436058 703.4922932603865 561.2213643902294 703.5811856991015 556.8997004368529 703.4940549239084 554.4316723598172 703.4069241487151 551.9636442827814 703.3136915559315 550.7296371872402 703.220458963148 549.495630091699 703.1597897596748 548.8759557783608 703.0991205562016 548.2562814650227 703.0362995438171 547.6365780276146 702.9734785314326 547.0168745902066 702.9077787786518 546.3920370981607 702.842079025871 545.7671996061148 702.7272508885444 544.5278214780742 702.6124227512178 543.2884433500336 702.4899364248707 542.0491247617857 702.3674500985237 540.8098061735378 702.2358781307639 539.5705178445082 702.104306163004 538.3312295154788 701.9629115678833 537.0919413087629 701.8215169727628 535.8526531020472 701.6695028807666 534.6133792851859 701.5174887887704 533.3741054683247 701.3544720746972 532.1400843612636 701.191455360624 530.9060632542024 701.0913579624449 530.2864482202378 700.9912605642659 529.6668331862734 700.8869571738086 529.0471292513489 700.7826537833513 528.4274253164244 700.6744562455004 527.8077961410161 700.5662587076496 527.1881669656078 700.4537573041462 526.5685063936749 700.3412559006428 525.9488458217418 700.2242535615802 525.3290513267447 700.1072512225177 524.7092568317476 699.9828114196332 524.0737066822583 699.8583716167489 523.438156532769 699.519859853156 520.9489999734437 699.1813480895631 518.4598434141185 698.8049715214884 514.7365727564007 698.4285949534136 511.013302098683 698.0348467253978 506.6648225411336 697.6410984973818 502.3163429835842 697.4099468529262 496.69541148505857 697.1787952084705 491.07447998653294 697.9978086653159 480.0288920662341 698.8168221221613 468.9833041459353 699.0371882714887 465.19654830261254 699.2575544208163 461.40979245928975 699.0523711031087 455.36657191716245 698.847187785401 449.3233513750352 698.7962857202187 447.92450667573314 698.7453836550366 446.52566197643114 698.1292018474717 444.0429734554815 697.5130200399069 441.56028493453186 697.1548100123281 434.5224085761347 696.7965999847493 427.4845322177375 698.2960368026775 418.713542388082 699.7954736206058 409.9425525584264 700.855972619203 394.1419976239948 701.9164716178003 378.3414426895633 704.979612740718 336.14450090107334 708.0427538636358 293.9475591125834 712.2916982118011 279.7612071093854 716.5406425599663 265.57485510618744 719.1485305084988 258.20471728698044 721.7564184570313 250.83457946777344 721.7664184570312 250.83457946777344 Z" fill="hsl(10, 75%, 40%)"></path><path d="M 652.1792820692823 258.0987588954809 Q 652.1792820692823 258.0987588954809 654.8971778153903 265.5242912655162 657.6150735614981 272.94982363555147 657.5019562968712 285.36135556843385 657.3888390322444 297.7728875013162 655.1652829493694 319.66101363488224 652.9417268664945 341.54913976844836 652.7337799747386 351.2833962807242 652.5258330829827 361.0176527930001 652.7768161465397 369.5768041431747 653.0277992100966 378.1359554933493 653.2088481407911 387.0349776645953 653.3898970714855 395.9339998358413 652.5733427641785 399.86850284038496 651.7567884568714 403.8030058449286 651.8107399209619 408.8178634419944 651.8646913850523 413.8327210390603 652.8998068592175 422.8753433209912 653.9349223333828 431.91796560292204 654.7500303145629 439.6474079937051 655.5651382957429 447.37685038448814 656.9451368330092 460.5743450882581 658.3251353702755 473.77183979202806 659.6077619973863 479.60273332814506 660.8903886244972 485.433626864262 660.660843437895 492.9645631810377 660.4312982512927 500.4954994978134 662.0558453422624 506.4745430737652 663.6803924332321 512.453586649717 663.1458893925328 516.3022597025663 662.6113863518335 520.1509327554157 662.7551312876865 520.5346046533721 662.8988762235393 520.9182765513285 663.1796784735197 522.1584981856348 663.4604807235 523.3987198199411 663.7692300272194 524.6415411338295 664.0779793309387 525.8843624477179 664.5477544163689 528.1844648785275 665.0175295017991 530.4845673093372 665.4670024611574 532.1887606402406 665.9164754205158 533.8929539711442 666.4323824357225 534.1053045642511 666.9482894509291 534.3176551573581 669.6727240901728 537.8541360449246 672.3971587294164 541.3906169324912 674.2596980470365 543.5414981354684 676.1222373646566 545.6923793384454 677.3887891250952 547.8612187366389 678.6553408855339 550.0300581348322 680.8369483599988 551.8033301926663 683.0185558344639 553.5766022505004 683.7373945285317 554.4217097816634 684.4562332225995 555.2668173128264 684.9520869592305 556.6956112809964 685.4479406958616 558.1244052491664 686.1221525105402 558.0233623829287 686.796364325219 557.9223195166909 688.6893320840369 558.7439688311783 690.5822998428548 559.5656181456659 691.6536782609982 560.212036856235 692.7250566791415 560.8584555668042 693.8191952835246 561.5137576978774 694.9133338879077 562.1690598289506 696.0584053585767 563.512565164667 697.2034768292458 564.8560705003833 697.5714459794567 564.6177469974975 697.9394151296677 564.3794234946117 700.7357178520626 565.6885966083279 703.5320205744574 566.997769722044 704.9716130675292 567.5487716158477 706.4112055606012 568.0997735096513 706.569773831889 568.0758785920586 706.7283421031769 568.051983674466 709.2447136968862 568.6995449723574 711.7610852905954 569.347106270249 713.1114064994254 570.050391328754 714.4617277082555 570.753676387259 716.4115825826145 571.2609375479686 718.3614374569735 571.7681987086783 720.3204235274646 571.7825949408409 722.2794095979558 571.7969911730037 724.2843606955705 572.451624397316 726.2893117931853 573.1062576216284 727.9316127803113 573.7042949000844 729.5739137674373 574.3023321785404 729.8239224376255 574.28324068099 730.0739311078137 574.2641491834397 731.7250308680113 574.3051849659641 733.3761306282089 574.3462207484886 733.9418825772557 574.3726961570736 734.5076345263025 574.3991715656587 736.1674746302103 574.4351340390508 737.8273147341182 574.471096512443 738.393090492669 574.4955539033595 738.9588662512199 574.5200112942761 740.0670398318357 574.553742434968 741.1752134124514 574.5874735756597 742.2879671164025 574.6193533327364 743.4007208203535 574.6512330898132 743.9618765992736 574.6726799722874 744.5230323781938 574.6941268547615 745.6311364308301 574.7230343277765 746.7392404834666 574.7519418007917 747.3003567403505 574.7717983835488 747.8614729972345 574.7916549663059 748.4179095996758 574.8107781651141 748.9743462021171 574.8299013639223 749.5307430274956 574.8484288502414 750.0871398528742 574.8669563365605 750.6435363401478 574.8849091196823 751.1999328274213 574.9028619028041 751.7563595699996 574.9202599595872 752.312786312578 574.9376580163702 752.8691830541477 574.9545187267589 753.4255797957175 574.9713794371477 754.5336736547151 574.9927997660732 755.6417675137128 575.0142200949986 756.75452054003 575.03450124454 757.8672735663471 575.0547823940816 759.5317635680228 575.0674323311175 761.1962535696987 575.0800822681534 763.9687978223594 575.0455934895178 766.7413420750202 575.0111047108823 768.4199403021199 575.024910049706 770.0985385292197 575.0387153885298 772.31950532936 575.0343967351193 774.5404721295004 575.0300780817089 777.3177161767693 574.9971031920128 780.0949602240382 574.9641283023167 781.7735983993922 574.9795244281421 783.4522365747462 574.9949205539675 787.3282353153988 574.8688604061324 791.2042340560514 574.7428002582973 793.9955761329934 574.7202247652273 796.7869182099354 574.6976492721573 799.5690104470572 574.6775614884855 802.351102684179 574.6574737048137 805.6848136700987 574.597414347523 809.0185246560186 574.5373549902322 812.3569244013032 574.4820563740345 815.6953241465878 574.426757757837 820.1370979748426 574.2476002493543 824.5788718030975 574.0684427408717 827.926690082542 574.0347237826832 831.2745083619865 574.0010048244947 834.0613306468296 574.0131148467206 836.8481529316726 574.0252248689466 841.2852686096924 573.8642716251466 845.7223842877122 573.7033183813467 847.9667984861853 573.7556981932262 850.2112126846584 573.8080780051058 853.5403534072498 573.7897214248012 856.8694941298411 573.7713648444966 858.5528234269352 573.8313816970958 860.2361527240295 573.8913985496952 863.5604939667803 573.86900034116 866.8848352095312 573.8466021326249 868.0164565967889 573.9001125500997 869.1480779840466 573.9536229675746 870.8127283667905 574.0065587061333 872.4773787495343 574.0594944446921 875.2498941072554 574.0695620441564 878.0224094649765 574.0796296436208 880.2527048189058 574.1149241015603 882.4830001728351 574.1502185594999 884.7086563985534 574.1824826279924 886.9343126242718 574.2147466964849 887.456101243275 574.2550135016584 887.9778898622784 574.2952803068317 888.7342731828436 573.8681979104805 889.4906565034088 573.4411155141293 892.6590613977985 574.3401707199982 895.8274662921883 575.2392259258673 895.8274747636192 575.2442259186907 895.82748323505 575.2492259115143 895.8274917064807 575.2542259043378 895.8275001779116 575.2592258971612 893.4603337675317 576.1676599583616 891.0931673571519 577.0760940195621 889.6331217560614 577.7524063680839 888.173076154971 578.4287187166058 887.5536943896213 578.4689855217791 886.9343126242718 578.5092523269526 884.7086563985534 578.5415163954451 882.4830001728351 578.5737804639376 880.2527048189058 578.6090749218772 878.0224094649765 578.6443693798167 875.2498941072554 578.6544369792811 872.4773787495343 578.6645045787454 870.8127283667905 578.7174403173042 869.1480779840466 578.7703760558629 868.0164565967889 578.8238864733378 866.8848352095312 578.8773968908126 863.5604939667803 578.8549986822775 860.2361527240295 578.8326004737423 858.5528234269352 578.8926173263417 856.8694941298411 578.9526341789409 853.5403534072498 578.9342775986363 850.2112126846584 578.9159210183317 847.9667984861853 578.9683008302113 845.7223842877122 579.0206806420908 841.2852686096924 578.8597273982909 836.8481529316726 578.6987741544909 834.0613306468296 578.710884176717 831.2745083619865 578.7229941989428 827.926690082542 578.6892752407543 824.5788718030975 578.6555562825658 820.1370979748426 578.4763987740832 815.6953241465878 578.2972412656005 812.3569244013032 578.241942649403 809.0185246560186 578.1866440332053 805.6848136700987 578.1265846759145 802.351102684179 578.0665253186238 799.5690104470572 578.046437534952 796.7869182099354 578.0263497512802 793.9955761329934 578.0037742582102 791.2042340560514 577.9811987651402 787.3282353153988 577.8551386173051 783.4522365747462 577.72907846947 781.7735983993922 577.7444745952954 780.0949602240382 577.7598707211208 777.3177161767693 577.7268958314247 774.5404721295004 577.6939209417286 772.31950532936 577.6896022883182 770.0985385292197 577.6852836349077 768.4199403021199 577.6990889737315 766.7413420750202 577.7128943125552 763.9687978223594 577.6784055339197 761.1962535696987 577.6439167552841 759.5317635680228 577.65656669232 757.8672735663471 577.6692166293559 756.75452054003 577.6894977788975 755.6417675137128 577.7097789284389 754.5336736547151 577.7311992573643 753.4255797957175 577.7526195862898 752.8691830541477 577.7694802966786 752.312786312578 577.7863410070673 751.7563595699996 577.8037390638503 751.1999328274213 577.8211371206334 750.6435363401478 577.8390899037552 750.0871398528742 577.857042686877 749.5307430274956 577.8755701731961 748.9743462021171 577.8940976595152 748.4179095996758 577.9132208583234 747.8614729972345 577.9323440571316 747.3003567403505 577.9522006398887 746.7392404834666 577.9720572226458 745.6311364308301 578.000964695661 744.5230323781938 578.029872168676 743.9618765992736 578.0513190511501 743.4007208203535 578.0727659336243 742.2879671164021 578.1046456907011 741.1752134124507 578.1365254477778 740.067039831755 578.1702565884691 738.9588662510594 578.2039877291605 738.3930904892802 578.2284451200278 737.827314727501 578.252902510895 736.1674734414835 578.2888649784784 734.507632155466 578.3248274460618 733.9418325726141 578.3513021712646 733.3760329897622 578.3777768964674 731.7074499990194 578.418732281087 730.0388670082766 578.4596876657067 729.1571640271509 578.431137591118 728.2754610460252 578.4025875165294 726.5792417039362 577.8878510257761 724.8830223618472 577.3731145350228 723.5400761288038 576.9243331315392 722.1971298957602 576.4755517280558 719.7050419952018 576.480489221371 717.2129540946434 576.4854267146861 714.7302747772783 575.8798950697933 712.2475954599131 575.2743634249005 711.3536525573536 574.8648747084848 710.459709654794 574.4553859920691 708.5530630886901 573.9995319902412 706.6464165225863 573.5436779884134 705.6731342770322 573.5102452821417 704.6998520314781 573.47681257587 702.7917066458658 572.9057216839046 700.8835612602534 572.3346307919394 699.2475490673505 571.4369148170401 697.6115368744476 570.5391988421409 695.7539195684453 570.282038253755 693.8963022624432 570.0248776653691 692.8157267705396 569.1522552951899 691.735151278636 568.2796329250107 690.6036440966641 567.8220822485123 689.4721369146921 567.3645315720139 688.3180079250293 566.8982370239331 687.1638789353665 566.4319424758523 686.8038188919118 566.1656848167111 686.4437588484572 565.8994271575697 685.3488893125925 565.8743798333861 684.2540197767278 565.8493325092026 681.6087069286098 564.6260557724174 678.9633940804919 563.4027790356323 678.3461347709708 562.6152052774156 677.7288754614498 561.8276315191989 677.2972650218117 561.5316485379574 676.8656545821735 561.235665556716 673.5114516057101 558.567021862913 670.1572486292466 555.89837816911 669.1792366258123 554.7192405249848 668.2012246223782 553.5401028808595 665.6126121183372 551.2305322703924 663.0239996142963 548.9209616599251 661.306741166341 546.9216327799069 659.5894827183857 544.9223038998887 656.7764889360737 542.8901711224945 653.9634951537619 540.8580383451003 652.1967803937855 538.1205378980758 650.4300656338091 535.3830374510513 649.787047078529 534.3541578220868 649.1440285232488 533.3252781931224 648.3399058040619 532.3423515223235 647.535783084875 531.3594248515246 646.6944918771255 530.3549961733594 645.8532006693762 529.3505674951941 643.789977462397 525.2729053834012 641.726754255418 521.1952432716083 641.1641136331416 519.4043187562977 640.6014730108652 517.613394240987 638.9157163868848 509.1447445384527 637.2299597629044 500.67609483591843 636.9721189238592 495.95567814893803 636.714278084814 491.23526146195763 634.668004424521 483.5997217235737 632.6217307642279 475.9641819851898 631.7856015956482 462.5486502110254 630.9494724270686 449.133118436861 630.6517276065357 441.26475152677676 630.3539827860028 433.3963846166925 630.2763856907611 424.6910330115445 630.1987885955193 415.98568140639645 629.1494058371002 409.9000793304606 628.100023078681 403.8144772545248 627.2834694779533 399.8741756975244 626.4669158772255 395.9338741405239 626.6480479349052 387.0277281682536 626.8291799925848 378.1215821959832 627.089942701456 368.8550976074235 627.3507054103272 359.5886130188638 628.2933050261264 349.08569789868136 629.2359046419256 338.58278277849894 632.5667343284001 316.1388290048634 635.8975640148748 293.6948752312278 640.2072225216102 282.8141047773304 644.5168810283456 271.9333343234329 648.3381110029691 265.0152796573354 652.1593409775927 258.09722499123785 652.1693115234375 258.0979919433594 Z" fill="hsl(10, 75%, 40%)"></path><path d="M 499.71116105948255 361.5798806741347 Q 499.71116105948255 361.5798806741347 508.99323313609943 354.47100131606544 518.2753052127163 347.36212195799624 524.1680999840517 344.88498449192764 530.060894755387 342.4078470258591 535.0417026920858 341.4383169893616 540.0225106287845 340.46878695286415 542.0826443970334 340.5073531963898 544.1427781652823 340.54591943991534 545.2877133075308 340.7002719622476 546.4326484497794 340.85462448457986 546.9940410523155 340.93678334637633 547.5554336548516 341.0189422081728 548.6635721450132 341.16205266046484 549.7717106351746 341.30516311275693 550.8844640215094 341.44214413576304 551.9972174078442 341.57912515876916 554.1558754048905 342.63594812888414 556.3145334019367 343.6927710989991 558.028781131155 345.62517849287707 559.7430288603733 347.557585886755 560.8185808988441 350.31041317724384 561.8941329373148 353.0632404677327 562.3531992166636 355.557838491412 562.8122654960123 358.05243651509124 562.7619904785572 362.56655972578426 562.7117154611021 367.0806829364772 562.5740821266319 370.42682914454633 562.4364487921616 373.7729753526154 562.3323150520932 377.6792950890697 562.2281813120248 381.585614825524 561.4929626784649 384.3211114160164 560.7577440449048 387.0566080065088 560.7022859106355 388.7748864893267 560.6468277763662 390.49316497214465 560.5715892176248 391.61110218759615 560.4963506588834 392.72903940304764 560.4248988946853 393.84185708551377 560.3534471304871 394.95467476797995 560.2675784717246 396.61916533404553 560.181709812962 398.28365590011117 560.1434443261021 398.8494863151359 560.1051788392422 399.41531673016067 560.0424737156548 400.5234756462418 559.9797685920673 401.631634562323 559.944151311284 402.1927210273677 559.9085340305007 402.75380749241253 559.7323313671027 403.65434856502867 559.5561287037045 404.5548896376448 557.460472670791 405.87531214335536 555.3648166378774 407.19573464906586 555.3598166826472 407.1957134902447 555.354816727417 407.1956923314236 555.3498167721867 407.19567117260243 555.3448168169565 407.1956500137813 554.361873353501 405.1870906370809 553.3789298900455 403.1785312603805 553.2027272266473 402.9661693763965 553.0265245632493 402.75380749241253 552.990907282466 402.19272102736704 552.9552900016827 401.6316345623215 552.8925848780957 400.52347564608397 552.8298797545087 399.41531672984644 552.7916142676977 398.8494863085525 552.7533487808867 398.28365588725853 552.6674801278839 396.6191641445787 552.5816114748812 394.9546724018989 552.5101603883054 393.84171280893395 552.4387093017295 392.72875321596905 552.363550463258 391.60215393482105 552.2883916247864 390.47555465367304 552.2423123457992 387.7423294436039 552.1962330668119 385.0091042335348 552.5644091723159 383.26507090774413 552.9325852778197 381.52103758195346 552.8284508543202 377.64706486391424 552.7243164308206 373.773092145875 552.586602692686 370.43314162814625 552.4488889545514 367.09319111041754 552.3891546824723 363.84609996943857 552.3294204103931 360.59900882845966 551.6756332045479 358.6519928112298 551.0218459987026 356.7049767939999 550.961218601801 356.144687732555 550.9005912048995 355.58439867111014 549.8111834948568 354.45579236324687 548.721775784814 353.3271860553836 549.3230896353551 353.0528947340516 549.9244034858963 352.77860341271963 550.9608104471681 353.83542638283546 551.99721740844 354.8922493529513 550.884464058449 355.029230376057 549.771710708458 355.1662113991627 548.6635810463267 355.30932186317216 547.5554513841955 355.45243232718167 546.9945876450682 355.5345925674991 546.433723905941 355.6167528078165 545.3525280896351 355.77126750908457 544.2713322733294 355.9257822103526 544.0488795515054 355.98342832867456 543.8264268296813 356.04107444699645 539.8757014673535 357.31623556300855 535.9249761050256 358.59139667902065 529.5027212493774 360.5839577187886 523.0804663937291 362.5765187585565 511.3988250304045 362.0877355461172 499.71718366707995 361.5989523336778 499.71417236328125 361.58941650390625 Z" fill="hsl(10, 75%, 40%)"></path><path d="M 470.7803849332783 387.1741074448468 Q 470.7803849332783 387.1741074448468 478.3236940654456 384.10137439322375 485.86700319761286 381.0286413416007 490.75572017640496 380.0818484846867 495.64443715519707 379.1350556277727 501.21545429222954 378.38729339977965 506.78647142926195 377.6395311717866 511.77600645762794 377.18394056599294 516.7655414859939 376.7283499601993 524.3896961330067 375.29211281456026 532.0138507800197 373.85587566892116 537.7440239898398 373.36401036259906 543.4741971996599 372.87214505627696 547.2773694064733 372.53015312303205 551.0805416132869 372.1881611897871 558.2184178399441 370.87060357070686 565.3562940666012 369.5530459516267 569.3422375388964 369.1864980136729 573.3281810111916 368.8199500757191 578.4343184994186 368.35796718782785 583.5404559876455 367.8959842999367 589.1297359620917 367.37254699653056 594.7190159365379 366.8491096931244 600.37018938918 365.20607378525153 606.0213628418221 363.56303787737863 611.7937501818753 363.5455549091548 617.5661375219286 363.528071940931 622.2720686017942 363.0767418125213 626.9779996816598 362.6254116841115 632.8818514131324 361.48042760020974 638.7857031446049 360.3354435163079 646.9602674060422 358.17237430559237 655.1348316674795 356.00930509487677 663.072919721068 354.57266769565103 671.0110077746565 353.13603029642525 674.3560436560183 352.84682326630195 677.7010795373801 352.5576162361787 681.0298951592763 352.73903976804297 684.3587107811726 352.9204632999072 686.5717407224904 352.63422954360806 688.7847706638082 352.34799578730895 692.239012756939 351.9575957164083 695.6932548500699 351.5671956455077 699.0593401591979 351.1731686395055 702.4254254683258 350.7791416335033 705.7934364237111 350.3673255691009 709.1614473790964 349.95550950469857 711.7999056082664 350.0547641430861 714.4383638374363 350.15401878147367 717.7724023789295 350.27265538631605 721.1064409204228 350.3912919911585 722.2381288143761 350.47462326124645 723.3698167083295 350.5579545313344 725.0344680837312 350.65829590056956 726.6991194591329 350.75863726980475 727.8166334805404 350.83305989903977 728.9341475019479 350.9074825282747 730.598647713917 350.99700906008627 732.263147925886 351.08653559189776 733.9323277786398 351.170671577632 735.6015076313935 351.2548075633662 737.8224246335305 351.33905052943373 740.0433416356676 351.4232934955012 741.1655536587014 351.4832716545796 742.2877656817352 351.543249813658 743.4006689706252 351.60030722182705 744.5135722595154 351.65736462999615 746.1780635384232 351.7241481506019 747.8425548173309 351.79093167120766 749.5117043359751 351.8537936236945 751.1808538546192 351.91665557618137 751.7467389979641 351.9464555398656 752.3126241413091 351.9762555035498 753.9724657659797 352.0335517634466 755.6323073906503 352.0908480233434 756.7497502729757 352.1362874674869 757.867193155301 352.18172691163045 759.5317230207529 352.23306687414816 761.1962528862048 352.2844068366659 762.8654329910132 352.3328004697836 764.5346130958218 352.38119410290136 766.2038327276648 352.42680198335034 767.8730523595078 352.4724098637993 770.6456065558463 352.5014101498247 773.4181607521847 352.5304104358501 775.0967590638057 352.5717775093196 776.7753573754268 352.61314458278906 777.8929899477698 352.64761848330784 779.010622520113 352.68209238382667 780.1234868836723 352.7150711680557 781.2363512472315 352.7480499522848 782.9008119370951 352.7832870681426 784.5652726269589 352.8185241840004 785.1311179152592 352.83791452945275 785.6969632035596 352.85730487490514 786.253440002768 352.8760094266275 786.8099168019763 352.89471397834984 787.3663139690275 352.9129992026498 787.9227111360785 352.9312844269498 788.479137884435 352.94916321180443 789.0355646327914 352.9670419966591 790.1436284886681 352.99416809914766 791.2516923445447 353.02129420163624 791.8128082597561 353.0382832291878 792.3739241749677 353.0552722567394 792.9303607745048 353.07177608154166 793.4867973740419 353.0882799063439 794.0431941993958 353.1044182174619 794.5995910247497 353.1205565285799 795.155987512023 353.1363389293972 795.7123839992963 353.1521213302144 797.1261526969072 354.0175801148317 798.5399213945179 354.88303889944893 798.4671265011729 355.27437217873444 798.3943316078278 355.66570545801994 798.7767286854776 355.8450386706624 799.1591257631273 356.02437188330487 799.8751676037527 357.99190531320767 800.5912094443781 359.9594387431105 800.6222818419 362.42184586091844 800.6533542394218 364.8842529787263 801.2506971937701 368.6481566371228 801.8480401481185 372.41206029551927 803.4488327871896 382.38933622911907 805.0496254262608 392.3666121627189 806.2061248526493 400.66664348343136 807.3626242790377 408.9666748041438 807.5615412192972 415.8210984534094 807.7604581595567 422.6755221026749 807.6629037836113 427.1476812315929 807.565349407666 431.6198403605109 807.418001266541 434.41624169560043 807.270653125416 437.2126430306899 807.1535933203119 438.89144414170215 807.0365335152078 440.5702452527144 806.9239119532253 443.8945631364724 806.8112903912429 447.2188810202304 806.7085954294457 448.9021693231766 806.6059004676484 450.58545762612283 806.561747609685 451.1514478200452 806.5175947517216 451.7174380139676 806.4751234280791 452.2739160448737 806.4326521044367 452.83039407577985 806.3613021006877 453.93847349664753 806.2899520969386 455.0465529175152 806.2498713604541 455.6076538359398 806.2097906239695 456.16875475436433 806.1709342116874 456.7252063555181 806.1320777994054 457.28165795667184 804.2704407551714 458.9461336412438 802.4088037109375 460.6106093258158 802.4038037109375 460.6106093258158 802.3988037109375 460.6106093258158 802.3938037109375 460.6106093258158 802.3888037109375 460.6106093258158 800.5271666667036 458.9461336412438 798.6655296224696 457.28165795667184 798.6266732101876 456.7252063555181 798.5878167979055 456.16875475436433 798.5477360614209 455.6076538359398 798.5076553249364 455.0465529175152 798.4363053211873 453.93847349664753 798.3649553174383 452.83039407577985 798.3224839937959 452.2739160448737 798.2800126701534 451.7174380139676 798.23585981219 451.15144782004575 798.1917069542266 450.58545762612397 798.0890119924288 448.90216932320993 797.9863170306312 447.2188810202959 797.8736954685994 443.89456314452866 797.7610739065676 440.5702452687614 797.6440140956547 438.89144474502973 797.5269542847418 437.21264422129804 797.3796054602232 434.4162887517216 797.2322566357045 431.6199332821451 797.1346218605158 427.15151740497794 797.0369870853272 422.6831015278108 797.2264452910747 416.15518552218384 797.4159034968221 409.62726951655685 797.4596106276738 401.20764137208744 797.5033177585254 392.788013227618 797.9913966304046 382.83896988603055 798.4794755022837 372.88992654444303 797.9733433182264 368.8926158569272 797.4672111341692 364.89530516941136 797.4888254690414 362.91609892391386 797.5104398039136 360.9368926784163 797.11376839165 359.58490459238 796.7170969793863 358.2329165063436 795.9960794248561 357.2995068913493 795.275061870326 356.36609727635505 795.1928077223571 355.65409632712493 795.1105535743882 354.9420953778948 795.4114687868423 355.8075541625121 795.7123839992963 356.67301294712934 795.155987512023 356.68879534794655 794.5995910247497 356.7045777487638 794.0431941993958 356.72071605988185 793.4867973740419 356.7368543709998 792.9303607745048 356.7533581958021 792.3739241749677 356.76986202060436 791.8128082597561 356.78685104815594 791.2516923445447 356.8038400757075 790.1436284886681 356.8309661781961 789.0355646327914 356.8580922806847 788.479137884435 356.8759710655393 787.9227111360785 356.89384985039396 787.3663139690275 356.91213507469394 786.8099168019763 356.9304202989939 786.253440002768 356.94912485071626 785.6969632035596 356.9678294024386 785.1311179152592 356.987219747891 784.5652726269589 357.00661009334334 782.9008119370951 357.04184720920114 781.2363512472315 357.07708432505893 780.1234868836723 357.11006310928803 779.010622520113 357.1430418935171 777.8929899477698 357.1775157940359 776.7753573754268 357.2119896945547 775.0967590638057 357.25335676802416 773.4181607521847 357.29472384149364 770.6456065558463 357.32372412751903 767.8730523595078 357.3527244135444 766.2038327276648 357.3983322939934 764.5346130958218 357.4439401744424 762.8654329910132 357.49233380756016 761.1962528862048 357.54072744067787 759.5317230207529 357.5920674031956 757.867193155301 357.6434073657133 756.7497502729757 357.68884680985684 755.6323073906503 357.7342862540003 753.9724657659797 357.79158251389714 752.3126241413091 357.84887877379396 751.7467389979641 357.87867873747814 751.1808538546192 357.9084787011624 749.5117043359751 357.97134065364924 747.8425548173309 358.0342026061361 746.1780635384232 358.1009861267419 744.5135722595154 358.1677696473476 743.4006689706252 358.2248270555167 742.2877656817352 358.28188446368574 741.1655536587014 358.34186262276415 740.0433416356676 358.40184078184257 737.8224246335305 358.48608374791 735.6015076313935 358.5703267139775 733.9323277786402 358.65446269971176 732.2631479258869 358.738598685446 730.5986477140059 358.82812521725793 728.934147502125 358.9176517490698 727.8166334878766 358.99207437835423 726.6991194736282 359.0664970076386 725.0344694058232 359.1668383826826 723.3698193380181 359.2671797577266 722.2381847258016 359.3505117112087 721.106550113585 359.4338436646908 717.7825259749296 359.5525606688435 714.4585018362743 359.67127767299627 712.6267491598607 359.779991053774 710.794996483447 359.8887044345517 707.4861887557557 360.58968159252095 704.1773810280645 361.29065875049025 700.8666668518399 362.0094545510761 697.5559526756153 362.7282503516619 694.342773410644 363.45059379766855 691.1295941456727 364.17293724367516 687.7785118171561 364.9901188065418 684.4274294886394 365.8073003694083 682.1820555930235 365.9982639777523 679.9366816974075 366.18922758609625 676.5290890823856 367.0223824947626 673.1214964673636 367.855537403429 665.4711030415251 368.65389436836256 657.8207096156865 369.45225133329615 649.3411309619844 370.6180819989763 640.8615523082824 371.78391266465644 634.5433543956076 372.85500793268454 628.2251564829329 373.9261032007126 622.9156681456523 374.57837739229035 617.6061798083717 375.23065158386805 613.3444109377476 375.2413842971932 609.0826420671235 375.2521170105183 602.50245022984 376.9285730495782 595.9222583925565 378.605029088638 590.3930410515272 379.194415691951 584.863823710498 379.78380229526397 579.9730810520186 380.43469235146904 575.0823383935394 381.08558240767405 571.222335866631 381.8412363027318 567.3623333397228 382.59689019778955 560.0901664041055 383.49549096897044 552.8179994684881 384.3940917401514 548.8028038939237 385.16500275410567 544.7876083193595 385.9359137680599 539.3522345817044 386.5662202858374 533.9168608440492 387.1965268036149 526.0088845208509 387.97647737373586 518.1009081976526 388.75642794385675 513.065771983354 389.41363055821733 508.0306357690554 390.0708331725779 502.4826064201494 390.4358934903057 496.9345770712434 390.8009538080335 491.7618056135731 390.9668737777721 486.58903415590277 391.1327937475107 478.6854220234216 389.16342518258193 470.78180989094045 387.1940566176532 470.7810974121094 387.18408203125 Z" fill="hsl(10, 75%, 40%)"></path><path d="M 525.3075975474655 403.8663284414127 Q 525.3075975474655 403.8663284414127 533.7445042348602 399.6210318236816 542.1814109222549 395.3757352059506 545.3950962091485 395.4174107981437 548.608781496042 395.45908639033684 549.1943884773228 395.511179893197 549.7799954586037 395.56327339605707 551.440311148792 395.689211905237 553.1006268389805 395.815150414417 553.666434484997 395.8748602008242 554.2322421310135 395.93456998723127 555.3403857436151 396.0422854727017 556.4485293562168 396.15000095817203 558.1129801777506 396.2864996868283 559.7774309992844 396.4229984154846 560.8949433179614 396.5214733767305 562.0124556366385 396.61994833797644 563.1397881615596 399.6869158001638 564.2671206864808 402.75388326235105 564.2621208702326 402.75392612824584 564.2571210539845 402.7539689941406 564.2521212377364 402.7540118600354 564.2471214214883 402.7540547259302 563.1297885290634 404.7176879596019 562.0124556366385 406.68132119327356 560.8949433179628 406.7797961545195 559.7774309992872 406.8782711157654 558.1129801779949 407.0147698444225 556.4485293567027 407.1512685730797 555.3403858020442 407.2589840586479 554.2322422473859 407.3666995442162 553.666436925316 407.4264093421425 553.1006316032461 407.48611914006875 551.4411563271458 407.6120590044376 549.7816810510456 407.73799886880636 549.2157255921228 407.7902518056486 548.6497701332 407.8425047424909 546.1966677341347 407.9029372737633 543.7435653350693 407.96336980503577 534.5268217844268 405.92477190251464 525.3100782337845 403.88617399999356 525.308837890625 403.8762512207031 Z" fill="hsl(10, 75%, 40%)"></path><path d="M 481.90724904889817 473.9735315945526 Q 481.90724904889817 473.9735315945526 487.09773386876043 471.2387922767871 492.2882186886227 468.5040529590216 505.73214212099 463.7583449193666 519.1760655533573 459.01263687971164 537.1738566248794 456.4497723314556 555.1716476964015 453.88690778319966 570.543301429462 450.9986496680008 585.9149551625226 448.11039155280184 606.1611332833751 445.7366574794836 626.4073114042276 443.3629234061653 637.0790635055091 442.1606082685304 647.7508156067906 440.95829313089547 653.7994092224269 440.86855663350013 659.8480028380632 440.77882013610486 665.9714556655658 440.73744371786364 672.0949084930685 440.6960672996224 675.4570160363121 441.1737609340188 678.8191235795556 441.6514545684152 682.1577650046845 442.02454840474854 685.4964064298135 442.3976422410818 686.6281493679247 442.69999675896906 687.7598923060359 443.0023512768563 688.8840874257364 443.271967757334 690.0082825454368 443.54158423781166 693.2888698954449 444.3949791539271 696.569457245453 445.24837407004264 697.1998654811207 445.42158793214975 697.8302737167885 445.59480179425685 700.5581201443315 446.4261108989218 703.2859665718745 447.2574200035868 703.8779464655399 447.3706639436599 704.4699263592055 447.48390788373297 705.5740340367875 447.6408318999179 706.6781417143693 447.79775591610286 708.3425327313579 447.95363262559283 710.0069237483465 448.1095093350828 711.6761029026435 448.24545888593207 713.3452820569405 448.38140843678127 714.4628345666995 448.495737389125 715.5803870764584 448.61006634146867 717.7965849879914 448.6836216304233 720.0127828995245 448.757176919378 722.2383192969827 448.819466186167 724.4638556944409 448.88175545295604 725.0344701262559 448.9447757259736 725.6050845580708 449.0077959989912 727.2649663816933 449.0887682363176 728.9248482053158 449.169740473644 729.4906243150745 449.22482045122194 730.0564004248331 449.27990042879986 731.1645437502816 449.35272205935183 732.2726870757302 449.4255436899038 732.8338036664331 449.4737027657135 733.3949202571359 449.5218618415232 734.5030239766725 449.58396818868897 735.6111276962091 449.6460745358547 736.7239110645195 449.70276419144477 737.8366944328299 449.7594538470349 738.9495175781549 449.8112288301884 740.0623407234798 449.8630038133419 741.1751339487307 449.9103364755579 742.2879271739816 449.95766913777396 742.8490530306541 449.99232889803625 743.4101788873265 450.02698865829854 743.9666458295447 450.05975099168467 744.523112771763 450.0925133250708 745.6311769692875 450.13022370197154 746.7392411668119 450.16793407887224 747.3003570849273 450.1973689542449 747.8614730030429 450.2268038296176 748.9695767168625 450.25900063960944 750.0776804306821 450.29119744960127 751.1904637989439 450.3207214407361 752.3032471672058 450.350245431871 752.8643729400937 450.37521596891514 753.4254987129818 450.4001865059593 755.0852998830035 450.40533416084503 756.7451010530252 450.41048181573075 757.3108764772282 450.4340929551407 757.8766519014312 450.4577040945507 758.4331583649735 450.4799832086804 758.9896648285156 450.50226232281005 760.0977293619715 450.52351714597665 761.2057938954272 450.54477196914326 762.3185769306558 450.56429677584185 763.4313599658846 450.58382158254045 765.0958502226362 450.5802630754372 766.7603404793878 450.576704568334 767.8778228750857 450.59491031578955 768.9953052707838 450.6131160632451 771.2115025863573 450.5652859845137 773.4276999019306 450.51745590578236 774.5499020658074 450.5378483413866 775.672104229684 450.55824077699083 776.2333100623348 450.5782101601302 776.7945158949855 450.5981795432695 777.9026506312573 450.61576164253034 779.0107853675293 450.6333437417912 779.5718716270453 450.6515334749488 780.1329578865615 450.6697232081064 781.2410916064617 450.68462272182126 782.349225326362 450.69952223553616 783.4619786914968 450.71321597288863 784.5747320566315 450.7269097102411 785.1358878326716 450.74291041328763 785.6970436087119 450.7589111163342 786.2534805470659 450.77412207424106 786.8099174854201 450.7893330321479 787.3663143136539 450.8038463391189 787.9227111418878 450.8183596460898 788.4791378873642 450.83221128600906 789.0355646328408 450.8460629259284 790.1436284886929 450.8545919089664 791.2516923445452 450.86312089200453 792.3644753740143 450.8709363990541 793.4772584034833 450.8787519061036 794.0383841734916 450.89126724065295 794.5995099434999 450.90378257520223 795.7076439992393 450.9103108435975 796.8157780549788 450.91683911199266 797.3768643087103 450.92849561910987 797.937950562442 450.9401521262271 798.4943869098565 450.95126579348357 799.050823257271 450.9623794607401 799.6072503386606 450.9730010020867 800.1636774200501 450.9836225434333 801.2861998374963 451.9070066901946 802.4087222549424 452.83039083695587 802.4037224386675 452.8304336997279 802.3987226223926 452.8304765625 802.3937228061177 452.8305194252721 802.3887229898428 452.8305622880441 801.2762002049465 452.6506122062898 800.1636774200501 452.47066212453547 799.6072503386606 452.4812836658821 799.050823257271 452.4919052072286 798.4943869098565 452.5030188744852 797.937950562442 452.5141325417417 797.3768643087103 452.5257890488589 796.8157780549788 452.5374455559761 795.7076439992393 452.5439738243713 794.5995099434999 452.5505020927665 794.0383841734916 452.5630174273158 793.4772584034833 452.57553276186513 792.3644753740143 452.5833482689147 791.2516923445452 452.5911637759642 790.1436284886929 452.5996927590023 789.0355646328408 452.60822174204037 788.4791378873642 452.6220733819597 787.9227111418878 452.63592502187896 787.3663143136539 452.6504383288499 786.8099174854201 452.66495163582084 786.2534805470659 452.6801625937277 785.6970436087119 452.69537355163453 785.1358878326716 452.7113742546811 784.5747320566315 452.72737495772765 783.4619786914968 452.7410686950801 782.349225326362 452.7547624324326 781.2410916064617 452.7696619461475 780.1329578865615 452.78456145986235 779.5718716270453 452.80275119301996 779.0107853675293 452.82094092617757 777.9026506312573 452.8385230254384 776.7945158949855 452.85610512469924 776.2333100623348 452.87607450783855 775.672104229684 452.8960438909779 774.5499020658074 452.91643632658213 773.4276999019306 452.9368287621864 771.2115025863573 452.88899868345504 768.9953052707838 452.84116860472363 767.8778228750857 452.8593743521792 766.7603404793878 452.87758009963477 765.0958502226362 452.87402159253156 763.4313599658846 452.8704630854283 762.3185769306558 452.8899878921269 761.2057938954272 452.9095126988255 760.0977293619715 452.9307675219921 758.9896648285156 452.9520223451587 758.4331583649735 452.97430145928837 757.8766519014312 452.99658057341804 757.3108764772282 453.020191712828 756.7451010530252 453.043802852238 755.0852998830035 453.0489505071237 753.4254987129818 453.05409816200944 752.8643729400937 453.0790686990536 752.3032471672058 453.1040392360978 751.1904637989439 453.1335632272326 750.0776804306821 453.1630872183675 748.9695767168625 453.1952840283593 747.8614730030429 453.22748083835114 747.3003570849273 453.25691571372386 746.7392411668119 453.2863505890965 745.6311769692875 453.3240609659972 744.523112771763 453.36177134289795 743.9666458295447 453.3945336762841 743.4101788873265 453.4272960096702 742.8490530306541 453.4619557699325 742.2879271739816 453.4966155301948 741.1751339487307 453.5439481924108 740.0623407234798 453.59128085462686 738.9495175781549 453.64305583778037 737.8366944328299 453.6948308209339 736.7239110645195 453.751520476524 735.6111276962091 453.808210132114 734.5030239766725 453.8703164792798 733.3949202571359 453.93242282644553 732.8338036664331 453.98058190225527 732.2726870757302 454.02874097806495 731.1645437502816 454.1015626086169 730.0564004248331 454.1743842391689 729.4906243150745 454.2294642167468 728.9248482053158 454.2845441943247 727.2649663816933 454.36551643165114 725.6050845580708 454.44648866897757 725.0344701262559 454.50950894199514 724.4638556944409 454.5725292150127 722.2383192969825 454.63481848180174 720.012782899524 454.6971077485907 717.7965849879229 454.770663037545 715.5803870763217 454.8442183264993 714.4628345608583 454.95854727879396 713.3452820453949 455.0728762310887 711.6761021604466 455.20882577617783 710.0069222754983 455.34477532126704 708.3423912523556 455.5006513531044 706.6778602292129 455.65652738494174 705.556161485101 455.8133716772828 704.434462740989 455.97021596962395 702.7820369516919 456.07408063395644 701.1296111623947 456.177945298289 699.4249035224125 455.90581019817546 697.7201958824303 455.63367509806193 696.0968821057174 455.7975103620321 694.4735683290047 455.96134562600224 692.2184432849814 455.71137605542344 689.9633182409581 455.4614064848446 688.861605273783 455.7310229653231 687.7598923066078 456.00063944580165 686.6281493806764 456.3029939637885 685.496406454745 456.6053484817753 682.1577666264691 456.97844232982584 678.819126798193 457.3515361778763 675.4571343889288 457.82923119076486 672.0951419796645 458.30692620365335 665.9864126072545 458.26571196095387 659.8776832348444 458.2244977182544 654.7116724777089 458.1538406963625 649.5456617205734 458.0831836744706 638.9138210520649 459.1255127137049 628.2819803835564 460.1678417529392 608.5423549927942 462.25471985380113 588.8027296020321 464.34159795466314 572.9783690435754 467.00801557597447 557.1540084851187 469.67443319728574 539.6093000433495 471.5720179897273 522.0645916015804 473.46960278216886 507.8309204957855 474.25941359870745 493.59724938999057 475.04922441524604 487.7542103756243 474.5211838126905 481.9111713612581 473.9931432101349 481.9092102050781 473.98333740234375 Z" fill="hsl(10, 75%, 40%)"></path><path d="M 507.5026353871692 437.2506668205806 Q 507.5026353871692 437.2506668205806 515.9309818659807 432.93598309256106 524.3593283447922 428.6212993645415 528.6874452925747 428.5855453990869 533.0155622403571 428.5497914336323 537.4701215704702 428.682999535519 541.9246809005831 428.81620763740574 543.0658676497404 428.91826259272176 544.2070543988978 429.0203175480378 545.3201202850073 429.1165492579506 546.433186171117 429.2127809678635 548.097678832032 429.33626029006894 549.762171492947 429.4597396122744 550.879653909034 429.54799440452587 551.997136325121 429.6362491967774 552.5583020399159 429.683881447228 553.1194677547109 429.73151369767857 553.6759350357231 429.77785456582353 554.2324023167354 429.82419543396844 555.3404665171396 429.9051000777788 556.4485307175438 429.9860047215891 557.0096466356838 430.030179373959 557.5707625538238 430.07435402632893 558.6788662676436 430.15063276879323 559.7869699814634 430.2269115112575 562.7034963052438 432.61734689271884 565.6200226290242 435.0077822741801 565.5374452234637 436.6698580191696 565.4548678179032 438.3319337641592 565.50708185534 444.4209662620327 565.5592958927768 450.5099987599062 565.5603831831456 456.0784773483206 565.5614704735145 461.646955936735 565.4696848509566 465.5560183326511 565.3778992283986 469.4650807285671 565.2805538834613 472.8083709612845 565.1832085385239 476.1516611940019 565.0899476363065 478.3867778761916 564.9966867340893 480.6218945583813 564.918736484989 482.29592465113217 564.8407862358888 483.96995474388297 564.8073956752505 484.5358511139292 564.7740051146121 485.1017474839754 564.7020771710227 486.7615892040729 564.6301492274333 488.4214309241704 564.5988212285677 488.9872218221384 564.567493229702 489.55301272010644 564.5372136569465 490.10948905699695 564.5069340841911 490.6659653938875 564.477237699248 491.22237768609824 564.4475413143048 491.77878997830896 564.4184133056488 492.3352017261399 564.3892852969926 492.8916134739709 564.3607147973738 493.4480100880853 564.332144297755 494.0044067021997 562.6304837699713 495.6735863435668 560.9288232421875 497.3427659849339 560.9238232421875 497.3427659849339 560.9188232421875 497.3427659849339 560.9138232421875 497.3427659849339 560.9088232421875 497.3427659849339 559.2071627144037 495.6735863435668 557.50550218662 494.0044067021997 557.4769316870012 493.4480100880853 557.4483611873824 492.8916134739709 557.4192331787262 492.3352017261399 557.3901051700702 491.77878997830896 557.360408785127 491.22237768609824 557.3307124001839 490.6659653938875 557.3004328274285 490.10948905699695 557.270153254673 489.55301272010644 557.2388252558073 488.9872218221384 557.2074972569417 488.4214309241704 557.1355693133523 486.7615892040729 557.0636413697629 485.1017474839754 557.0302508091245 484.5358511139292 556.9968602484862 483.96995474388297 556.918909999386 482.2959246511325 556.8409597502857 480.6218945583821 556.747698848068 478.3867778762238 556.6544379458502 476.15166119406547 556.557092600863 472.80837096465746 556.4597472558759 469.4650807352494 556.3679616274599 465.55601862329513 556.2761759990439 461.6469565113408 556.2772626002215 456.0785085649187 556.2783492013994 450.51006061849654 556.3304821575375 444.43406951542545 556.3826151136756 438.3580784123544 556.290498731797 436.71012121361844 556.1983823499185 435.0621640148824 557.9926761656909 437.45259939634366 559.7869699814634 439.843034777805 558.6788662676436 439.91931352026927 557.5707625538238 439.99559226273357 557.0096466356838 440.0397669151035 556.4485307175438 440.0839415674734 555.3404665171396 440.1648462112837 554.2324023167354 440.24575085509406 553.6759350357231 440.29209172323897 553.1194677547109 440.33843259138393 552.558302039918 440.3860648418345 551.9971363251251 440.4336970922851 550.8796539092 440.52195188453743 549.7621714932749 440.6102066767898 548.0976788623229 440.73368599909315 546.433186231371 440.85716532139645 545.3201238865829 440.95339704282844 544.2070615417949 441.0496287642605 543.0659827016548 441.15168507476534 541.9249038615146 441.2537413852702 537.485682925012 441.3871089211391 533.0464619885096 441.52047645700793 529.501062534139 441.50347943063264 525.9556630797683 441.48648240425734 516.7303895787214 439.37849739144775 507.50511607767453 437.27051237863816 507.5038757324219 437.2605895996094 Z" fill="hsl(10, 75%, 40%)"></path><path d="M 506.3886268976684 501.79391795780793 Q 506.3886268976684 501.79391795780793 514.5089559788249 496.68032356111576 522.6292850599815 491.56672916442363 525.5743098072442 491.41954873219214 528.5193345545067 491.27236829996065 530.0824978201958 490.82294854765144 531.645661085885 490.37352879534217 533.4628561392431 490.33206799328326 535.280051192601 490.29060719122435 536.9569849486751 490.37078145233534 538.6339187047491 490.45095571344626 540.854835176412 490.5731500530608 543.075751648075 490.6953443926753 544.1979634970589 490.7833027525653 545.320175346043 490.8712611124553 546.4330786367493 490.95537038976784 547.5459819274557 491.0394796670804 548.1071087196829 491.0851457968419 548.6682355119099 491.1308119266034 549.7763695763385 491.20983061393304 550.8845036407673 491.2888493012627 551.4455898945728 491.33205401432105 552.0066761483781 491.3752587273794 552.5631124957933 491.4173014820325 553.1195488432085 491.4593442366855 553.6759759245981 491.5005662874554 554.2324030059876 491.54178833822533 554.7887997504372 491.5822051692485 555.3451964948869 491.62262200027163 555.9015929814725 491.6622520733765 556.4579894680581 491.70188214648135 557.0144162106305 491.7407434437914 557.570842953203 491.77960474110154 559.7964593237787 494.0045838646914 562.0220756943544 496.22956298828126 562.0220756943544 496.23456298828125 562.0220756943544 496.23956298828125 562.0220756943544 496.24456298828125 562.0220756943544 496.24956298828124 559.7964593237787 498.4745421118711 557.570842953203 500.69952123546096 557.0144162106305 500.7383825327711 556.4579894680581 500.77724383008115 555.9015929814725 500.816873903186 555.3451964948869 500.85650397629087 554.7887997504372 500.896920807314 554.2324030059876 500.93733763833717 553.6759759245981 500.9785596891071 553.1195488432085 501.019781739877 552.5631124957933 501.06182449453 552.0066761483781 501.1038672491831 551.4455898945728 501.14707196224145 550.8845036407673 501.1902766752998 549.7763695763404 501.26929536262946 548.6682355119135 501.3483140499591 548.107108719799 501.393980179721 547.5459819276847 501.4396463094829 546.4330786506439 501.52375558684446 545.3201753736032 501.607864864206 544.197964356883 501.6958232298573 543.0757533401626 501.78378159550863 540.8549746738219 501.90597661292264 538.6341960074811 502.02817163033666 536.9819876948819 502.10842563256995 535.3297793822827 502.1886796348033 534.9024018745811 502.156600141259 534.4750243668796 502.1245206477147 531.5860008477605 502.7787842500642 528.6969773286414 503.4330478524136 527.0785486184609 503.3233812983407 525.4601199082803 503.21371474426775 515.9267987513997 502.5135177779955 506.3934775945191 501.8133208117233 506.39105224609375 501.8036193847656 Z" fill="hsl(10, 75%, 40%)"></path><path d="M 733.411157233196 378.27408731586473 Q 733.411157233196 378.27408731586473 745.9316796871337 382.98789508249445 758.4522021410714 387.7017028491242 760.9137115278729 390.09058543189394 763.3752209146744 392.4794680146637 764.7012288623396 393.65804235236567 766.0272368100046 394.8366166900676 768.0283663246776 397.6882258233803 770.0294958393506 400.5398349566931 770.5431637816547 401.9616954512587 771.0568317239588 403.38355594582436 772.165611719722 404.62232641830786 773.2743917154853 405.8610968907914 773.1179076261308 406.48149032298375 772.9614235367762 407.10188375517606 773.0847658903878 406.312201520115 773.2081082439993 405.522519285054 775.2743299713318 407.138329573605 777.3405516986643 408.7541398621561 778.7625819981056 410.99833121109236 780.1846122975469 413.2425225600286 780.6229418543941 414.3840288900009 781.0612714112413 415.52553521997316 781.7817142936569 416.54272184080173 782.5021571760727 417.55990846163024 782.840323889724 419.0205117841298 783.1784906033754 420.4811151066293 783.1086364510653 419.70096445519715 783.0387822987552 418.920813803765 783.9971092963033 420.75009205502096 784.9554362938513 422.5793703062769 783.1103934873328 425.4638790560098 781.2653506808142 428.34838780574256 781.2603508584075 428.34842994718645 781.2553510360008 428.34847208863033 781.2503512135941 428.3485142300742 781.2453513911873 428.3485563715181 778.2779965224738 427.8852475186427 775.3106416537603 427.42193866576736 775.1562547208332 427.03505877598013 775.0018677879061 426.6481788861929 773.8285192874195 424.7551546073196 772.6551707869328 422.86213032844626 772.9744998934136 423.2004514244141 773.2938289998946 423.53877252038194 771.7980828034331 422.33034268975484 770.3023366069715 421.1219128591277 769.6277125769228 420.0378031601905 768.9530885468741 418.9536934612533 769.2434296251184 418.97231849260163 769.5337707033627 418.9909435239499 768.2712305102233 418.39059567140873 767.0086903170838 417.7902478188676 764.925063855987 415.8876919506047 762.8414373948901 413.98513608234174 762.6567366796834 413.4832466102646 762.4720359644766 412.9813571381874 760.2612129188024 411.99443142535375 758.0503898731281 411.0075057125201 757.441723752701 410.19436972388763 756.833057632274 409.38123373525514 756.5989125333465 408.9036936934896 756.3647674344192 408.42615365172395 754.3324647689512 407.3593193807173 752.3001621034834 406.29248510971064 749.0855054633837 404.12726257499537 745.870848823284 401.96204004028004 739.634386810669 390.125562055567 733.397924798054 378.289084070854 733.404541015625 378.2815856933594 Z" fill="hsl(10, 75%, 40%)"></path><path d="M 737.8480014744741 435.0286811654564 Q 737.8480014744741 435.0286811654564 742.8559848693048 419.9056186367884 747.8639682641357 404.78255610812033 751.4612173111207 400.6788491141592 755.0584663581058 396.5751421201981 760.4902743475466 390.800115552948 765.9220823369873 385.0250889856979 769.1690451177531 382.2949127785206 772.4160078985187 379.56473657134336 773.6998862752008 378.57997954002855 774.9837646518829 377.59522250871373 777.197354798284 377.00332894612507 779.4109449446851 376.41143538353646 779.7177038855704 375.42583088754 780.0244628264556 374.44022639154343 782.1730493879486 372.4026703392212 784.3216359494414 370.3651142868989 787.7844201289349 372.65443174532686 791.2472043084285 374.94374920375475 791.2494479876202 374.94821752599967 791.2516916668119 374.95268584824464 791.2539353460036 374.9571541704896 791.2561790251953 374.96162249273453 791.3806022884885 379.4766684306388 791.5050255517818 383.99171436854317 791.4466234038305 383.0764900203618 791.3882212558792 382.16126567218043 791.6573034423009 383.41065830856974 791.9263856287225 384.660050944959 789.707416426465 387.3973829324699 787.4884472242074 390.13471491998087 786.5179822786864 391.4043517939935 785.5475173331654 392.67398866800613 783.1927920181129 395.55501129817833 780.8380667030605 398.43603392835047 776.2821193365855 403.7712332711187 771.7261719701107 409.10643261388697 768.5438602453214 414.0264992422632 765.3615485205322 418.9465658706394 751.6125474488103 426.99391549712277 737.8635463770884 435.0412651236061 737.8557739257812 435.03497314453125 Z" fill="hsl(10, 75%, 40%)"></path></svg>